<svg xmlns="http://www.w3.org/2000/svg" viewBox="0 0 64 64" role="img" aria-label="HS Beauty">
  <defs>
    <radialGradient id="bg" cx="35%" cy="25%" r="80%">
      <stop offset="0" stop-color="#2a121d"/>
      <stop offset="0.58" stop-color="#12080d"/>
      <stop offset="1" stop-color="#050204"/>
    </radialGradient>
    <linearGradient id="gold" x1="10" y1="8" x2="55" y2="58" gradientUnits="userSpaceOnUse">
      <stop offset="0" stop-color="#fff2a8"/>
      <stop offset="0.32" stop-color="#f5c542"/>
      <stop offset="0.68" stop-color="#c98608"/>
      <stop offset="1" stop-color="#fff0a0"/>
    </linearGradient>
    <linearGradient id="wing" x1="0" y1="0" x2="1" y2="1">
      <stop offset="0" stop-color="#fff7c2"/>
      <stop offset="0.45" stop-color="#f6c849"/>
      <stop offset="1" stop-color="#9a5c00"/>
    </linearGradient>
    <filter id="shadow" x="-30%" y="-30%" width="160%" height="160%">
      <feDropShadow dx="0" dy="2" stdDeviation="2.2" flood-color="#000" flood-opacity="0.55"/>
    </filter>
  </defs>
  <rect width="64" height="64" rx="15" fill="url(#bg)"/>
  <g filter="url(#shadow)" transform="translate(2 1) scale(1.28) rotate(-11 30 30)">
    <ellipse cx="18.4" cy="28" rx="12.6" ry="7.2" fill="url(#wing)" stroke="#5f3300" stroke-width="1.25"/>
    <ellipse cx="40.9" cy="16.5" rx="7.2" ry="12.9" fill="url(#wing)" stroke="#5f3300" stroke-width="1.25"/>
    <ellipse cx="43.8" cy="29" rx="10.8" ry="6" fill="url(#wing)" stroke="#5f3300" stroke-width="1.15"/>
    <ellipse cx="31.6" cy="29.4" rx="6.8" ry="13.3" fill="url(#gold)" stroke="#4a2500" stroke-width="1.4"/>
    <path d="M25.8 25.4c3.5 1.8 8.3 1.2 11.6-1.3M25.4 32.1c3.7 2.2 8.8 1.9 12.7-.6M27.3 38.1c2.8 1.7 6.3 1.4 9.2-.5" fill="none" stroke="#5b2b00" stroke-width="1.7" stroke-linecap="round"/>
    <circle cx="28.6" cy="15.9" r="5.7" fill="url(#gold)" stroke="#4a2500" stroke-width="1.25"/>
    <circle cx="26.9" cy="14.6" r="1.15" fill="#fff7be" opacity="0.9"/>
    <path d="M24.7 11.4 18.4 6.6M31.5 10.7 32.1 3.8" fill="none" stroke="#f4c33e" stroke-width="2" stroke-linecap="round"/>
    <circle cx="17.7" cy="6.1" r="1.7" fill="#f4c33e"/>
    <circle cx="32.2" cy="3.2" r="1.7" fill="#f4c33e"/>
  </g>
</svg>
